<mxfile host="65bd71144e">
    <diagram id="rZsTG8Ztt0vHk9UzfyL7" name="Page-1">
        <mxGraphModel dx="697" dy="680" grid="1" gridSize="10" guides="1" tooltips="1" connect="1" arrows="1" fold="1" page="1" pageScale="1" pageWidth="850" pageHeight="1100" math="0" shadow="0">
            <root>
                <mxCell id="0"/>
                <mxCell id="1" parent="0"/>
                <mxCell id="4" value="ATM&lt;br&gt;" style="strokeWidth=1;shadow=0;dashed=0;align=center;html=1;shape=mxgraph.mockup.containers.window;align=left;verticalAlign=top;spacingLeft=8;strokeColor2=#008cff;strokeColor3=#c4c4c4;fontColor=#666666;mainText=;fontSize=17;labelBackgroundColor=none;" vertex="1" parent="1">
                    <mxGeometry x="190" y="40" width="550" height="380" as="geometry"/>
                </mxCell>
                <mxCell id="5" value="" style="verticalLabelPosition=bottom;shadow=0;dashed=0;align=center;html=1;verticalAlign=top;strokeWidth=1;shape=mxgraph.mockup.containers.userMale;strokeColor=#666666;strokeColor2=#008cff;" vertex="1" parent="1">
                    <mxGeometry x="640" y="70" width="100" height="100" as="geometry"/>
                </mxCell>
                <mxCell id="12" value="" style="strokeWidth=1;shadow=0;dashed=0;align=center;html=1;shape=mxgraph.mockup.forms.rrect;rSize=0;strokeColor=#999999;fillColor=#ffffff;recursiveResize=0;" vertex="1" parent="1">
                    <mxGeometry x="210" y="170" width="150" height="100" as="geometry"/>
                </mxCell>
                <mxCell id="13" value="Preleva" style="strokeWidth=1;shadow=0;dashed=0;align=center;html=1;shape=mxgraph.mockup.forms.rrect;rSize=0;fillColor=#eeeeee;strokeColor=#999999;gradientColor=#cccccc;align=left;spacingLeft=4;fontSize=17;fontColor=#666666;labelPosition=right;" vertex="1" parent="12">
                    <mxGeometry x="8" y="7.5" width="15" height="15" as="geometry"/>
                </mxCell>
                <mxCell id="14" value="Ricarica" style="strokeWidth=1;shadow=0;dashed=0;align=center;html=1;shape=mxgraph.mockup.forms.rrect;rSize=0;fillColor=#eeeeee;strokeColor=#999999;gradientColor=#cccccc;align=left;spacingLeft=4;fontSize=17;fontColor=#666666;labelPosition=right;" vertex="1" parent="12">
                    <mxGeometry x="8" y="37.5" width="15" height="15" as="geometry"/>
                </mxCell>
                <mxCell id="15" value="Visualizza" style="strokeWidth=1;shadow=0;dashed=0;align=center;html=1;shape=mxgraph.mockup.forms.checkbox;rSize=0;resizable=0;fillColor=#aaaaaa;strokeColor=#444444;gradientColor=#666666;align=left;spacingLeft=4;fontSize=17;fontColor=#008cff;labelPosition=right;" vertex="1" parent="12">
                    <mxGeometry x="8" y="67.5" width="15" height="15" as="geometry"/>
                </mxCell>
                <mxCell id="17" value="Conferma" style="strokeWidth=1;shadow=0;dashed=0;align=center;html=1;shape=mxgraph.mockup.buttons.button;strokeColor=#666666;fontColor=#ffffff;mainText=;buttonStyle=round;fontSize=17;fontStyle=1;fillColor=#008cff;whiteSpace=wrap;" vertex="1" parent="1">
                    <mxGeometry x="210" y="280" width="150" height="50" as="geometry"/>
                </mxCell>
            </root>
        </mxGraphModel>
    </diagram>
</mxfile>